<svg xmlns="http://www.w3.org/2000/svg" viewBox="0 0 525 600">
  <defs>
    <linearGradient id="hair" x1="0" y1="0" x2="1" y2="1">
      <stop offset="0" stop-color="#24182d"/>
      <stop offset="0.5" stop-color="#3f2d49"/>
      <stop offset="1" stop-color="#201527"/>
    </linearGradient>
    <linearGradient id="shine" x1="0" y1="0" x2="0" y2="1">
      <stop offset="0" stop-color="#c0a8c7" stop-opacity=".6"/>
      <stop offset="1" stop-color="#876d91" stop-opacity="0"/>
    </linearGradient>
  </defs>
  <path d="M86 210C95 82 164 26 263 26s167 57 176 184c-27-20-58-31-89-35-22-42-50-63-87-67-38 4-67 25-88 67-32 4-63 15-89 35Z" fill="url(#hair)"/>
  <path d="M91 207c-8 58 1 137 24 190 13 30 32 50 58 62 2-31 8-62 18-93-20-43-25-96-16-157-30-13-58-13-84-2Zm343 0c8 58-1 137-24 190-13 30-32 50-58 62-2-31-8-62-18-93 20-43 25-96 16-157 30-13 58-13 84-2Z" fill="#2b1d35"/>
  <path d="M151 132c26-38 63-60 111-65 49 5 86 27 112 65-40-22-78-33-112-33-35 0-72 11-111 33Z" fill="url(#shine)"/>
  <path d="M166 150c15 15 23 37 24 66 10-39 28-68 54-86 2 27 9 49 22 66 10-24 27-45 51-62 0 31 10 59 31 83 2-35 10-61 24-78 22 27 33 61 33 102-34-22-68-36-102-40-23 9-49 13-78 12-25-1-53 4-83 16 3-34 18-60 44-79Z" fill="url(#hair)"/>
  <path d="M184 183c12 13 18 31 17 54m55-90c2 23 9 42 21 58m50-48c-1 22 6 43 21 62" fill="none" stroke="#a48bae" stroke-width="8" stroke-linecap="round" opacity=".35"/>
  <path d="M126 369c12 37 31 65 58 83m215-83c-12 37-31 65-58 83" fill="none" stroke="#b49bc0" stroke-width="7" stroke-linecap="round" opacity=".28"/>
</svg>